<svg width="52" height="51" xmlns="http://www.w3.org/2000/svg" xmlns:xlink="http://www.w3.org/1999/xlink" xml:space="preserve" overflow="hidden"><g transform="translate(-108 -321)"><g><g><g><g><path d="M29.2356 9.47946C29.2356 6.50373 31.6989 4.08333 34.7277 4.08333 37.7555 4.08333 40.2178 6.50373 40.2178 9.47946 40.2178 12.4552 37.7555 14.8756 34.7277 14.8756 31.6989 14.8756 29.2356 12.4552 29.2356 9.47946L29.2356 9.47946ZM40.9997 16.6743C40.3392 16.2639 39.642 15.925 38.9223 15.6524 40.9334 14.3151 42.2594 12.0479 42.2594 9.47946 42.2594 5.37877 38.8805 2.04167 34.7277 2.04167 30.574 2.04167 27.194 5.37877 27.194 9.47946 27.194 12.0417 28.5139 14.306 30.5178 15.6443 29.2101 16.1373 27.981 16.8591 26.8979 17.788L28.2281 19.3376C30.0472 17.7768 32.3492 16.9173 34.7083 16.9173 36.5479 16.9173 38.3517 17.4328 39.9238 18.4087 42.7209 20.1461 44.5563 23.1984 44.8687 26.5417L34.7083 26.5417 34.7083 28.5833 45.9375 28.5833C46.502 28.5833 46.9583 28.127 46.9583 27.5625 46.9583 23.129 44.6758 18.9569 40.9997 16.6743ZM8.81898 9.47946C8.81898 6.50373 11.2823 4.08333 14.3111 4.08333 17.3389 4.08333 19.8011 6.50373 19.8011 9.47946 19.8011 12.4552 17.3389 14.8756 14.3111 14.8756 11.2823 14.8756 8.81898 12.4552 8.81898 9.47946ZM14.2917 26.5417 4.13029 26.5417C4.62438 21.1486 8.99354 16.9173 14.2917 16.9173 16.1312 16.9173 17.935 17.4328 19.5071 18.4087 19.9481 18.6833 20.3738 18.9957 20.7729 19.3376L22.1031 17.789C21.6253 17.3787 21.1149 17.004 20.5831 16.6743 19.9226 16.2639 19.2254 15.925 18.5057 15.6524 20.5167 14.3151 21.8428 12.0479 21.8428 9.47946 21.8428 5.37877 18.4638 2.04167 14.3111 2.04167 10.1573 2.04167 6.77731 5.37877 6.77731 9.47946 6.77731 12.0469 8.10235 14.3151 10.1134 15.6514 5.41246 17.4266 2.04167 22.0888 2.04167 27.5625 2.04167 28.127 2.499 28.5833 3.0625 28.5833L14.2917 28.5833 14.2917 26.5417ZM14.3386 44.9167C14.8327 39.5236 19.2019 35.2923 24.5 35.2923 26.3395 35.2923 28.1434 35.8078 29.7154 36.7837 32.5125 38.5211 34.348 41.5734 34.6604 44.9167L14.3386 44.9167ZM19.0273 27.8545C19.0273 24.8787 21.4906 22.4583 24.5194 22.4583 27.5472 22.4583 30.0094 24.8787 30.0094 27.8545 30.0094 30.8302 27.5472 33.2506 24.5194 33.2506 21.4906 33.2506 19.0273 30.8302 19.0273 27.8545ZM30.7914 35.0493C30.1309 34.6389 29.4337 34.3 28.714 34.0274 30.725 32.6901 32.0511 30.4229 32.0511 27.8545 32.0511 23.7538 28.6721 20.4167 24.5194 20.4167 20.3656 20.4167 16.9856 23.7538 16.9856 27.8545 16.9856 30.4219 18.3107 32.6901 20.3217 34.0264 15.6208 35.8016 12.25 40.4638 12.25 45.9375 12.25 46.502 12.7073 46.9583 13.2708 46.9583L35.7292 46.9583C36.2937 46.9583 36.75 46.502 36.75 45.9375 36.75 41.504 34.4674 37.3319 30.7914 35.0493Z" fill="#242F3E" fill-rule="evenodd" fill-opacity="1" transform="matrix(-1.02041 0 0 1 159 322)"/></g></g></g></g></g></svg>