<svg width="198" height="202" xmlns="http://www.w3.org/2000/svg" xmlns:xlink="http://www.w3.org/1999/xlink" xml:space="preserve" overflow="hidden"><g transform="translate(-3927 -1448)"><g><path d="M3933.73 1619.2C3936.82 1625.37 3936.82 1625.37 3936.82 1625.37 3936.82 1625.98 3937.44 1625.98 3938.05 1625.98 3946.08 1624.13 3946.08 1624.13 3946.08 1624.13 3948.55 1627.22 3951.63 1630.3 3955.34 1632.77 3954.1 1640.18 3954.1 1640.18 3954.1 1640.18 3953.48 1641.41 3954.1 1642.03 3954.72 1642.03 3961.51 1644.5 3961.51 1644.5 3961.51 1644.5 3962.12 1644.5 3962.74 1644.5 3962.74 1643.88 3967.06 1637.09 3967.06 1637.09 3967.06 1637.09 3971.38 1637.71 3975.7 1637.71 3980.02 1636.48 3984.34 1642.65 3984.34 1642.65 3984.34 1642.65 3984.96 1643.27 3985.58 1643.88 3986.2 1643.27 3992.37 1640.18 3992.37 1640.18 3992.37 1640.18 3992.98 1640.18 3992.98 1639.56 3992.98 1638.95 3991.13 1630.92 3991.13 1630.92 3991.13 1630.92 3994.22 1628.45 3997.3 1625.37 3999.77 1621.66 4007.18 1622.9 4007.18 1622.9 4007.18 1622.9 4008.41 1623.52 4009.03 1622.9 4009.03 1622.28 4011.5 1615.49 4011.5 1615.49 4011.5 1615.49 4011.5 1614.87 4011.5 1614.26 4010.88 1614.26 4004.09 1609.94 4004.09 1609.94 4004.09 1609.94 4004.71 1605.62 4004.71 1601.3 4003.48 1596.98 4009.65 1592.66 4009.65 1592.66 4009.65 1592.66 4010.27 1592.04 4010.88 1591.42 4010.27 1590.8 4007.18 1584.63 4007.18 1584.63 4007.18 1584.63 4007.18 1584.02 4006.56 1584.02 4005.95 1584.02 3998.54 1585.87 3998.54 1585.87 3998.54 1585.87 3995.45 1582.78 3992.37 1579.7 3988.66 1577.23 3989.9 1569.82 3989.9 1569.82 3989.9 1569.82 3990.52 1568.59 3989.9 1567.97 3989.28 1567.97 3982.49 1565.5 3982.49 1565.5 3982.49 1565.5 3981.88 1565.5 3981.26 1565.5 3981.26 1566.12 3976.94 1572.91 3976.94 1572.91 3976.94 1572.91 3972.62 1572.29 3968.3 1572.29 3963.98 1573.52 3959.66 1567.35 3959.66 1567.35 3959.66 1567.35 3959.04 1566.73 3958.42 1566.12 3957.8 1566.73 3951.63 1569.82 3951.63 1569.82 3951.63 1569.82 3951.02 1569.82 3951.02 1570.44 3951.02 1571.05 3952.87 1578.46 3952.87 1578.46 3952.87 1578.46 3949.78 1581.55 3946.7 1584.63 3944.23 1588.34 3936.82 1587.1 3936.82 1587.1 3936.82 1587.1 3935.59 1586.48 3934.97 1587.1 3934.97 1587.72 3932.5 1594.51 3932.5 1594.51 3932.5 1594.51 3932.5 1595.12 3932.5 1595.74 3933.12 1595.74 3939.91 1600.06 3939.91 1600.06 3939.91 1600.06 3939.29 1604.38 3939.29 1608.7 3940.52 1613.02 3934.35 1617.34 3934.35 1617.34 3934.35 1617.34 3933.73 1617.96 3933.12 1618.58 3933.73 1619.2ZM3963.36 1589.57C3972.62 1584.63 3984.34 1588.95 3988.05 1598.83 3991.75 1606.85 3988.05 1616.11 3980.64 1620.43 3971.38 1625.37 3959.66 1621.05 3955.95 1611.17 3952.25 1603.15 3955.95 1593.89 3963.36 1589.57Z" stroke="#FF693C" stroke-width="5.15643" stroke-linecap="butt" stroke-linejoin="round" stroke-miterlimit="10" stroke-opacity="1" fill="none" fill-rule="evenodd"/><path d="M4119.27 1522.81C4107.58 1518.5 4107.58 1518.5 4107.58 1518.5 4107.58 1516.04 4106.96 1513.58 4106.96 1511.12 4118.04 1505.58 4118.04 1505.58 4118.04 1505.58 4118.65 1504.96 4119.27 1503.73 4118.65 1502.5 4115.58 1492.65 4115.58 1492.65 4115.58 1492.65 4114.96 1491.42 4113.73 1490.81 4113.12 1490.81 4100.81 1493.27 4100.81 1493.27 4100.81 1493.27 4099.58 1490.81 4097.73 1488.96 4096.5 1487.12 4103.27 1476.65 4103.27 1476.65 4103.27 1476.65 4103.88 1475.42 4103.27 1474.19 4102.65 1473.58 4094.04 1466.19 4094.04 1466.19 4094.04 1466.19 4093.42 1465.58 4092.19 1465.58 4091.58 1466.19 4082.35 1474.81 4082.35 1474.81 4082.35 1474.81 4079.88 1472.96 4077.42 1472.35 4075.58 1471.12 4075.58 1458.81 4075.58 1458.81 4075.58 1458.81 4075.58 1457.58 4074.96 1456.96 4074.35 1456.35 4063.27 1454.5 4063.27 1454.5 4063.27 1454.5 4062.04 1454.5 4061.42 1455.12 4060.81 1455.73 4056.5 1467.42 4056.5 1467.42 4056.5 1467.42 4054.04 1467.42 4051.58 1468.04 4049.12 1468.04 4043.58 1456.96 4043.58 1456.96 4043.58 1456.96 4042.96 1456.35 4041.73 1455.73 4040.5 1456.35 4030.65 1459.42 4030.65 1459.42 4030.65 1459.42 4029.42 1460.04 4028.81 1461.27 4028.81 1461.88 4031.27 1474.19 4031.27 1474.19 4031.27 1474.19 4028.81 1475.42 4026.96 1477.27 4025.12 1478.5 4014.65 1471.73 4014.65 1471.73 4014.65 1471.73 4013.42 1471.12 4012.19 1471.73 4011.58 1472.35 4004.19 1480.96 4004.19 1480.96 4004.19 1480.96 4003.58 1481.58 4003.58 1482.81 4004.19 1483.42 4012.81 1492.65 4012.81 1492.65 4012.81 1492.65 4010.96 1495.12 4010.35 1497.58 4009.12 1499.42 3996.81 1499.42 3996.81 1499.42 3996.81 1499.42 3995.58 1499.42 3994.96 1500.04 3994.35 1500.65 3992.5 1511.73 3992.5 1511.73 3992.5 1511.73 3992.5 1512.96 3993.12 1513.58 3993.73 1514.19 4005.42 1518.5 4005.42 1518.5 4005.42 1518.5 4005.42 1520.96 4006.04 1523.42 4006.04 1525.88 3994.96 1531.42 3994.96 1531.42 3994.96 1531.42 3994.35 1532.04 3993.73 1533.27 3994.35 1534.5 3997.42 1544.35 3997.42 1544.35 3997.42 1544.35 3998.04 1545.58 3999.27 1546.19 3999.88 1546.19 4012.19 1543.73 4012.19 1543.73 4012.19 1543.73 4013.42 1546.19 4015.27 1548.04 4016.5 1549.88 4009.73 1560.35 4009.73 1560.35 4009.73 1560.35 4009.12 1561.58 4009.73 1562.81 4010.35 1563.42 4018.96 1570.81 4018.96 1570.81 4018.96 1570.81 4019.58 1571.42 4020.81 1571.42 4021.42 1570.81 4030.65 1562.19 4030.65 1562.19 4030.65 1562.19 4033.12 1564.04 4035.58 1564.65 4037.42 1565.88 4037.42 1578.19 4037.42 1578.19 4037.42 1578.19 4037.42 1579.42 4038.04 1580.04 4038.65 1580.65 4049.73 1582.5 4049.73 1582.5 4049.73 1582.5 4050.96 1582.5 4051.58 1581.88 4052.19 1581.27 4056.5 1569.58 4056.5 1569.58 4056.5 1569.58 4058.96 1569.58 4061.42 1568.96 4063.88 1568.96 4069.42 1580.04 4069.42 1580.04 4069.42 1580.04 4070.04 1580.65 4071.27 1581.27 4072.5 1580.65 4082.35 1577.58 4082.35 1577.58 4082.35 1577.58 4083.58 1576.96 4084.19 1575.73 4084.19 1575.12 4081.73 1562.81 4081.73 1562.81 4081.73 1562.81 4084.19 1561.58 4086.04 1559.73 4087.88 1558.5 4098.35 1565.27 4098.35 1565.27 4098.35 1565.27 4099.58 1565.88 4100.81 1565.27 4101.42 1564.65 4108.81 1556.04 4108.81 1556.04 4108.81 1556.04 4109.42 1555.42 4109.42 1554.19 4108.81 1553.58 4100.19 1544.35 4100.19 1544.35 4100.19 1544.35 4102.04 1541.88 4102.65 1539.42 4103.88 1537.58 4116.19 1537.58 4116.19 1537.58 4116.19 1537.58 4117.42 1537.58 4118.04 1536.96 4118.65 1536.35 4120.5 1525.27 4120.5 1525.27 4120.5 1525.27 4120.5 1524.04 4119.88 1523.42 4119.27 1522.81Z" stroke="#FF693C" stroke-width="5.15643" stroke-linecap="butt" stroke-linejoin="round" stroke-miterlimit="10" stroke-opacity="1" fill="none" fill-rule="evenodd"/><path d="M4076.07 1495.63C4089.25 1506.14 4090.5 1525.92 4079.21 1538.28 4068.55 1551.26 4048.47 1552.5 4035.93 1541.37 4022.75 1530.86 4021.5 1511.08 4032.79 1498.72 4043.45 1485.74 4063.53 1484.5 4076.07 1495.63Z" stroke="#FF693C" stroke-width="5.15643" stroke-linecap="butt" stroke-linejoin="round" stroke-miterlimit="10" stroke-opacity="1" fill="none" fill-rule="evenodd"/></g></g></svg>