<svg width="197" height="202" xmlns="http://www.w3.org/2000/svg" xmlns:xlink="http://www.w3.org/1999/xlink" xml:space="preserve" overflow="hidden"><g transform="translate(-1856 -600)"><g><path d="M1861.5 798.5 2048.5 798.5" stroke="#AD5CFF" stroke-width="6.875" stroke-linecap="butt" stroke-linejoin="miter" stroke-miterlimit="8" stroke-opacity="1" fill="none" fill-rule="evenodd"/><path d="M2047.5 753.122C2024.86 763.392 1991.97 771.5 1956.39 771.5 1918.65 771.5 1884.68 762.311 1861.5 751.5" stroke="#AD5CFF" stroke-width="6.875" stroke-linecap="butt" stroke-linejoin="miter" stroke-miterlimit="8" stroke-opacity="1" fill="none" fill-rule="evenodd"/><path d="M2047.5 704.176C2024.38 720.768 1992.13 739.5 1956.11 739.5 1918.48 739.5 1884.62 719.162 1861.5 701.5" stroke="#AD5CFF" stroke-width="6.875" stroke-linecap="butt" stroke-linejoin="miter" stroke-miterlimit="8" stroke-opacity="1" fill="none" fill-rule="evenodd"/><path d="M0 0 0.000360892 100" stroke="#AD5CFF" stroke-width="6.875" stroke-linecap="butt" stroke-linejoin="miter" stroke-miterlimit="8" stroke-opacity="1" fill="none" fill-rule="evenodd" transform="matrix(1 0 0 -1 1953.5 709.5)"/><path d="M1971.5 695.643 1968.08 692.5 1953.5 707.99 1938.92 692.5 1935.5 695.643 1953.5 714.5 1971.5 695.643Z" stroke="#AD5CFF" stroke-width="1.14583" stroke-linecap="butt" stroke-linejoin="round" stroke-miterlimit="10" stroke-opacity="1" fill="#AD5CFF" fill-rule="evenodd" fill-opacity="1"/><path d="M1971.5 623.357 1968.08 626.5 1953.5 611.01 1938.92 626.5 1935.5 623.357 1953.5 604.5 1971.5 623.357Z" stroke="#AD5CFF" stroke-width="1.14583" stroke-linecap="butt" stroke-linejoin="round" stroke-miterlimit="10" stroke-opacity="1" fill="#AD5CFF" fill-rule="evenodd" fill-opacity="1"/></g></g></svg>