<svg width="170" height="170" xmlns="http://www.w3.org/2000/svg" xmlns:xlink="http://www.w3.org/1999/xlink" xml:space="preserve" overflow="hidden"><g transform="translate(-3932 -609)"><g><path d="M0 0 27.9998 27.9998" stroke="#41B3FF" stroke-width="6.875" stroke-linecap="butt" stroke-linejoin="round" stroke-miterlimit="10" stroke-opacity="1" fill="none" fill-rule="evenodd" transform="matrix(-1 0 0 1 3965.5 744.5)"/><path d="M0 0 28.9999 28.9999" stroke="#41B3FF" stroke-width="6.875" stroke-linecap="butt" stroke-linejoin="round" stroke-miterlimit="10" stroke-opacity="1" fill="none" fill-rule="evenodd" transform="matrix(-1 0 0 1 4096.5 613.5)"/><path d="M4096.5 760.5 4096.5 773.5 4083.5 773.5" stroke="#41B3FF" stroke-width="6.875" stroke-linecap="butt" stroke-linejoin="round" stroke-miterlimit="10" stroke-opacity="1" fill="none" fill-rule="evenodd"/><path d="M4055.5 773.5 4030.8 773.5M3977.5 773.5 4001.77 773.5" stroke="#41B3FF" stroke-width="6.875" stroke-linecap="butt" stroke-linejoin="round" stroke-miterlimit="10" stroke-opacity="1" fill="none" fill-rule="evenodd"/><path d="M3936.5 708.233 3936.5 732.5M3936.5 654.5 3936.5 678.117" stroke="#41B3FF" stroke-width="6.875" stroke-linecap="butt" stroke-linejoin="round" stroke-miterlimit="10" stroke-opacity="1" fill="none" fill-rule="evenodd"/><path d="M3948.5 613.5 3936.5 613.5 3936.5 625.5" stroke="#41B3FF" stroke-width="6.875" stroke-linecap="butt" stroke-linejoin="round" stroke-miterlimit="10" stroke-opacity="1" fill="none" fill-rule="evenodd"/><path d="M4030.8 613.5 4055.5 613.5M3977.5 613.5 4001.77 613.5" stroke="#41B3FF" stroke-width="6.875" stroke-linecap="butt" stroke-linejoin="round" stroke-miterlimit="10" stroke-opacity="1" fill="none" fill-rule="evenodd"/><path d="M4096.5 708.5 4096.5 731.5" stroke="#41B3FF" stroke-width="6.875" stroke-linecap="butt" stroke-linejoin="round" stroke-miterlimit="10" stroke-opacity="1" fill="none" fill-rule="evenodd"/><path d="M4096.5 654.5 4096.5 678.5" stroke="#41B3FF" stroke-width="6.875" stroke-linecap="butt" stroke-linejoin="round" stroke-miterlimit="10" stroke-opacity="1" fill="none" fill-rule="evenodd"/><path d="M4073.5 613.5 4096.5 613.5 4096.5 635.5" stroke="#41B3FF" stroke-width="6.875" stroke-linecap="butt" stroke-linejoin="round" stroke-miterlimit="10" stroke-opacity="1" fill="none" fill-rule="evenodd"/><path d="M3958.5 773.5 3936.5 773.5 3936.5 750.5" stroke="#41B3FF" stroke-width="6.875" stroke-linecap="butt" stroke-linejoin="round" stroke-miterlimit="10" stroke-opacity="1" fill="none" fill-rule="evenodd"/><rect x="3975.5" y="652.5" width="82.0002" height="82.0002" stroke="#41B3FF" stroke-width="6.875" stroke-linecap="butt" stroke-linejoin="round" stroke-miterlimit="10" stroke-opacity="1" fill="none"/></g></g></svg>