<svg width="202" height="207" xmlns="http://www.w3.org/2000/svg" xmlns:xlink="http://www.w3.org/1999/xlink" xml:space="preserve" overflow="hidden"><g transform="translate(-1888 -1443)"><g><path d="M2076.8 1505.06C2082.86 1518.4 2086.5 1532.34 2086.5 1547.5 2086.5 1600.85 2042.85 1644.5 1989.5 1644.5 1936.15 1644.5 1892.5 1600.85 1892.5 1547.5 1892.5 1543.86 1892.5 1540.23 1893.11 1536.59 1894.32 1525.68 1897.35 1514.76 1902.2 1505.06 1910.69 1487.48 1924.63 1472.33 1942.21 1462.63 1956.16 1454.74 1972.53 1450.5 1989.5 1450.5 2027.69 1450.5 2061.04 1472.93 2076.8 1505.06" stroke="#00E500" stroke-width="6.875" stroke-linecap="butt" stroke-linejoin="round" stroke-miterlimit="10" stroke-opacity="1" fill="none" fill-rule="evenodd"/><path d="M2033.5 1504.5 2045.5 1516 2033.5 1527.5" stroke="#00E500" stroke-width="6.875" stroke-linecap="butt" stroke-linejoin="round" stroke-miterlimit="10" stroke-opacity="1" fill="none" fill-rule="evenodd"/><path d="M2033.5 1590.5 2045.5 1579 2033.5 1567.5" stroke="#00E500" stroke-width="6.875" stroke-linecap="butt" stroke-linejoin="round" stroke-miterlimit="10" stroke-opacity="1" fill="none" fill-rule="evenodd"/><path d="M1933.5 1515.5C1956.63 1515.5 1956.63 1515.5 1956.63 1515.5 1973.67 1515.5 1988.28 1529.43 1988.28 1547 1988.28 1564.57 2002.28 1578.5 2019.93 1578.5 2019.93 1578.5 2019.93 1578.5 2019.93 1578.5 2045.5 1578.5 2045.5 1578.5 2045.5 1578.5" stroke="#00E500" stroke-width="6.875" stroke-linecap="butt" stroke-linejoin="round" stroke-miterlimit="10" stroke-opacity="1" fill="none" fill-rule="evenodd"/><path d="M1993.5 1528.5C1999.62 1520.82 2008.79 1515.5 2019.81 1515.5 2019.81 1515.5 2019.81 1515.5 2019.81 1515.5 2045.5 1515.5 2045.5 1515.5 2045.5 1515.5" stroke="#00E500" stroke-width="6.875" stroke-linecap="butt" stroke-linejoin="round" stroke-miterlimit="10" stroke-opacity="1" fill="none" fill-rule="evenodd"/><path d="M1933.5 1578.5C1956.3 1578.5 1956.3 1578.5 1956.3 1578.5 1966.5 1578.5 1975.5 1573.93 1981.5 1566.5" stroke="#00E500" stroke-width="6.875" stroke-linecap="butt" stroke-linejoin="round" stroke-miterlimit="10" stroke-opacity="1" fill="none" fill-rule="evenodd"/></g></g></svg>